<svg id="Group_38330" data-name="Group 38330" xmlns="http://www.w3.org/2000/svg" width="172.154" height="66.39" viewBox="0 0 172.154 66.39">
  <g id="_Group_" data-name=" Group " transform="translate(106.974)">
    <g id="Group_38271" data-name="Group 38271" transform="translate(9.757 11.84)">
      <path id="Path_11535" data-name="Path 11535" d="M1919.638,316.261a3.133,3.133,0,0,1-.883,1.593,2.06,2.06,0,0,1-.422.318.336.336,0,0,0-.2.448,30.482,30.482,0,0,1,.688,7.976,32.057,32.057,0,0,1-24.617,29.836,30.258,30.258,0,0,1-6.531.848c-.82.02-1.637-.028-2.456-.024-.105,0-.23-.046-.3.081a2.814,2.814,0,0,1-1.892,1.38h-.8a3.706,3.706,0,0,1-1.142-.5,2.605,2.605,0,1,1,4.122-2.386c.02.187.031.292.269.3a30.915,30.915,0,0,0,19.019-5.541c.183-.127.224-.208.077-.408q-3.687-5.015-7.354-10.043a.321.321,0,0,0-.455-.134,2.634,2.634,0,0,1-2.9-.54,2.592,2.592,0,0,1-.723-2.856,2.647,2.647,0,0,1,2.218-1.862,2.739,2.739,0,0,1,2.8,1.39,2.708,2.708,0,0,1-.3,3.07.294.294,0,0,0-.017.446q3.7,5.029,7.374,10.07c.147.2.231.183.4.049a30.959,30.959,0,0,0,9.7-12.62c.122-.289-.017-.307-.223-.338q-2.44-.375-4.879-.755c-.644-.1-1.286-.212-1.931-.3a.674.674,0,0,1-.482-.305c-1.389-1.9-2.786-3.8-4.172-5.708a.343.343,0,0,0-.475-.15,2.228,2.228,0,0,1-2.881-1.567,2.249,2.249,0,1,1,4.391-.954,2.09,2.09,0,0,1-.415,1.723c-.154.192-.119.3.008.475q2,2.711,3.986,5.433a.7.7,0,0,0,.5.322q3.309.5,6.612,1.039c.328.054.431-.061.53-.341a31.852,31.852,0,0,0,1.707-7.847,30.862,30.862,0,0,0-.543-8.939c-.048-.233-.112-.349-.39-.359a2.744,2.744,0,1,1,2.92-3.229.528.528,0,0,0,.057.115Z" transform="translate(-1864.214 -304.168)" fill="#53b4b8"/>
      <path id="Path_11536" data-name="Path 11536" d="M1876.152,178.6a3.014,3.014,0,0,1,1.285.708,2.244,2.244,0,0,1,.634,1.321c.022.211.1.271.3.3,2.469.371,4.936.754,7.4,1.129a.66.66,0,0,1,.441.317q2.473,3.374,4.949,6.746c.688.937,1.382,1.869,2.059,2.813.136.19.219.2.406.064.876-.658,1.77-1.292,2.645-1.952a.552.552,0,0,1,.6-.1,5.633,5.633,0,0,0,.7.175c-.519.382-1,.741-1.49,1.1q-2.987,2.187-5.978,4.369a.812.812,0,0,0-.34.6c-.3,2.032-.624,4.062-.941,6.092-.1.644-.224,1.285-.3,1.932a.87.87,0,0,1-.413.637q-3.954,2.89-7.905,5.782a.343.343,0,0,0-.147.479,2.307,2.307,0,0,1-1.612,2.988,2.33,2.33,0,1,1-1.014-4.545,2.24,2.24,0,0,1,1.839.455.27.27,0,0,0,.394,0q3.907-2.87,7.822-5.728a.557.557,0,0,0,.245-.4q.547-3.587,1.112-7.172c.051-.327.109-.654.15-.983a.88.88,0,0,1,.4-.645c1.034-.742,2.052-1.507,3.087-2.247.207-.148.211-.239.067-.435q-3.417-4.638-6.819-9.287a.629.629,0,0,0-.447-.288c-1.956-.293-3.909-.6-5.863-.9-.371-.058-.744-.107-1.112-.179a.346.346,0,0,0-.46.222,2.287,2.287,0,0,1-2.665,1.229,2.328,2.328,0,0,1,.056-4.526c.064-.015.134-.009.18-.069Z" transform="translate(-1858.069 -178.602)" fill="#53b4b8"/>
      <path id="Path_11537" data-name="Path 11537" d="M1668.982,645.085a2.238,2.238,0,0,1-2.128,2.253,2.191,2.191,0,0,1-2.321-1.845c-.043-.275-.152-.366-.435-.408-2.295-.337-4.586-.7-6.878-1.049a.848.848,0,0,1-.595-.368q-3.438-4.7-6.881-9.4c-.181-.249-.282-.235-.5-.071-2.181,1.61-4.372,3.206-6.553,4.817-.223.165-.285.121-.373-.115-.176-.475-.188-.469.229-.774q4.365-3.2,8.726-6.4c.223-.164.311-.128.442.084.25.4.26.4-.113.669-.4.294-.8.6-1.208.878-.183.124-.187.21-.06.382q1.835,2.482,3.656,4.975,1.571,2.141,3.139,4.284a.588.588,0,0,0,.42.273c1.955.3,3.908.6,5.861.907.295.046.594.072.883.14.237.056.339-.006.447-.232a2.209,2.209,0,0,1,2.53-1.173A2.247,2.247,0,0,1,1668.982,645.085Z" transform="translate(-1642.198 -601.52)" fill="#53b4b8"/>
      <path id="Path_11538" data-name="Path 11538" d="M1796.423,460.744l2.476-1.817q2.677-1.961,5.357-3.918a.29.29,0,0,0,.124-.4,2.234,2.234,0,0,1,1.506-2.911,2.25,2.25,0,0,1,1.867,4.03,2.182,2.182,0,0,1-2.547-.035.387.387,0,0,0-.563.016c-2.351,1.732-4.71,3.454-7.061,5.187-.227.168-.415.253-.671.066A2.536,2.536,0,0,0,1796.423,460.744Z" transform="translate(-1786.176 -433.47)" fill="#53b4b8"/>
      <path id="Path_11539" data-name="Path 11539" d="M1683,295.428a.467.467,0,0,1,.1-.058c.238-.049.515-.33.694-.149a1.273,1.273,0,0,1,.509,1.153c-.386,2.32-.733,4.646-1.105,6.969-.039.24.108.273.253.35a2.154,2.154,0,0,1,1.238,2.073,2.249,2.249,0,1,1-2.657-2.265.435.435,0,0,0,.423-.428q.493-3.326,1.021-6.647a.584.584,0,0,0-.129-.514C1683.221,295.76,1683.115,295.592,1683,295.428Z" transform="translate(-1677.658 -287.416)" fill="#53b4b8"/>
    </g>
    <g id="Group_38272" data-name="Group 38272" transform="translate(0)">
      <path id="Path_11540" data-name="Path 11540" d="M1814.232,944.808a.233.233,0,0,0-.009-.056h1.015c0,.018-.007.037-.009.055Z" transform="translate(-1793.036 -882.007)" fill="#88a1ba"/>
      <path id="Path_11541" data-name="Path 11541" d="M1495.408,513.408l-.029,0-.026-.012v-.8A1.881,1.881,0,0,1,1495.408,513.408Z" transform="translate(-1495.353 -478.57)" fill="#93a9c0"/>
      <path id="Path_11542" data-name="Path 11542" d="M1555.22,18.073a3.841,3.841,0,0,0-.36-1.1,18.824,18.824,0,0,0-3.238-4.677q-11.4-12.611-28.3-10.773a5.45,5.45,0,0,1-1.939-.08,31.037,31.037,0,0,0-8.6-1.034,7.543,7.543,0,0,0-3.521.948,1.374,1.374,0,0,0-.177,2.489,9.691,9.691,0,0,0,2.19,1.3c.1.043.219.075.228.212s-.1.184-.193.241a31.808,31.808,0,0,0-8.09,6.711,31.48,31.48,0,0,0-7.746,18.248,6.819,6.819,0,0,1-.116,1.279V34.43a3.465,3.465,0,0,1,.034.754,20.955,20.955,0,0,0,.4,4.052,30.113,30.113,0,0,0,2.358,7.411,33.677,33.677,0,0,0,3.271,5.574,31.81,31.81,0,0,0,5.328,5.757,30.688,30.688,0,0,0,7.3,4.555,5.807,5.807,0,0,0,2.588.632,8.3,8.3,0,0,0,.924-.021c.957-.127,1.451-.706,1.317-1.554a2.155,2.155,0,0,0-.3-.766,8.162,8.162,0,0,0-1.624-1.876,55.592,55.592,0,0,1-4.128-3.849,11.9,11.9,0,0,1-2.128-2.99,3.7,3.7,0,0,1,1.305-4.956,13.452,13.452,0,0,1,2.271-1.3c1.5-.686,3.069-1.186,4.624-1.722a30.343,30.343,0,0,0,3.66-1.457,4.212,4.212,0,0,0,1.654-1.349,1.581,1.581,0,0,0-.436-2.343,3.169,3.169,0,0,0-.961-.437,17.032,17.032,0,0,0-3.314-.458c-2.263-.167-4.536-.15-6.795-.4a17.086,17.086,0,0,1-5.394-1.416c-3.565-1.658-5.1-4.712-4.24-8.387a7.088,7.088,0,0,1,5.086-5.51,14.03,14.03,0,0,1,6.242-.332,22.352,22.352,0,0,1,5.693,1.726c.774.331.788.4.218,1.012a9.514,9.514,0,0,0-1.584,2.038c-.624,1.2-.274,1.918,1.053,2.17a11.484,11.484,0,0,0,4.937-.174,13.458,13.458,0,0,0,3.956-1.573,3.472,3.472,0,0,1,2.218-.593c.9.076,1.808.165,2.714.2a39.576,39.576,0,0,0,5.966-.25,30.275,30.275,0,0,0,7.69-1.812,20.479,20.479,0,0,0,7.148-4.536A2.48,2.48,0,0,0,1555.22,18.073Zm-15.321-3.15a2.814,2.814,0,1,1,.024-5.628,2.878,2.878,0,0,1,2.83,2.8A2.823,2.823,0,0,1,1539.9,14.923Z" transform="translate(-1495.353 -0.398)" fill="#fff"/>
    </g>
  </g>
  <g id="Group_38273" data-name="Group 38273" transform="translate(0.052 36.428)">
    <path id="Path_11543" data-name="Path 11543" d="M227.168,554.255c.113-.914.167-1.913.373-2.88a3.107,3.107,0,0,1,3.131-2.681,11.143,11.143,0,0,1,2.314.074,2.987,2.987,0,0,1,2.611,2.481,13.5,13.5,0,0,1,.033,6.051,3.059,3.059,0,0,1-3.024,2.68,10.025,10.025,0,0,1-2.477-.073,3.093,3.093,0,0,1-2.653-2.836C227.318,556.173,227.273,555.254,227.168,554.255Zm1.458.08.074.007a6.128,6.128,0,0,0,.007.895,17.013,17.013,0,0,0,.4,2.171,1.871,1.871,0,0,0,1.583,1.344,5.493,5.493,0,0,0,1.319.071,2.209,2.209,0,0,0,2.228-1.861,10.919,10.919,0,0,0,.22-3.689,9.938,9.938,0,0,0-.363-1.943,1.912,1.912,0,0,0-1.588-1.386,5.2,5.2,0,0,0-1.318-.077,2.221,2.221,0,0,0-2.28,2.038C228.756,552.7,228.716,553.524,228.625,554.335Z" transform="translate(-216.468 -548.667)" fill="#fff"/>
    <path id="Path_11544" data-name="Path 11544" d="M1246.079,560.972c-.421,0-.839.014-1.255-.013-.081-.005-.192-.159-.222-.264-.3-1.006-.576-2.016-.861-3.026a1.491,1.491,0,0,0-1.717-1.3h-2.252c-.01.163-.027.3-.027.444,0,1.262-.008,2.524,0,3.786,0,.281-.065.412-.368.383a6.505,6.505,0,0,0-.73,0c-.166,0-.25-.062-.234-.235,0-.033,0-.066,0-.1q0-5.181,0-10.361c0-.21.036-.329.284-.332,1.47-.017,2.94-.055,4.41-.061a3.615,3.615,0,0,1,.944.158,2.07,2.07,0,0,1,1.607,1.966,9.584,9.584,0,0,1-.055,2.208,1.8,1.8,0,0,1-1.561,1.553c-.106.021-.209.057-.323.089.021.045.028.092.049.1a2.073,2.073,0,0,1,1.249,1.419c.373,1.144.711,2.3,1.062,3.45A.661.661,0,0,1,1246.079,560.972Zm-6.313-5.821c1.076,0,2.127.061,3.166-.019a1.3,1.3,0,0,0,1.37-1.342,5.569,5.569,0,0,0-.03-1.515,1.287,1.287,0,0,0-1.342-1.216c-.947-.048-1.9-.024-2.848-.042-.278-.005-.349.112-.346.377.013,1.149.005,2.3.007,3.449C1239.744,554.952,1239.759,555.059,1239.766,555.151Z" transform="translate(-1160.522 -549.807)" fill="#fff"/>
    <path id="Path_11545" data-name="Path 11545" d="M538.08,562.438c.044-.164.069-.28.107-.393q1.663-5,3.329-9.994c.183-.548.247-.593.834-.594.376,0,.753.013,1.129,0s.549.176.661.514q1.483,4.483,2.983,8.96c.16.479.318.959.5,1.5-.467,0-.882.013-1.295-.012-.07,0-.159-.162-.192-.264-.308-.944-.615-1.89-.9-2.841-.072-.238-.17-.341-.432-.339q-1.976.017-3.952,0a.348.348,0,0,0-.395.3c-.289.962-.6,1.916-.894,2.878-.065.217-.16.307-.39.3C538.82,562.425,538.468,562.438,538.08,562.438Zm2.855-4.653h3.791a1.649,1.649,0,0,0-.03-.164c-.516-1.642-1.03-3.285-1.56-4.923a.354.354,0,0,0-.28-.183.4.4,0,0,0-.307.192c-.211.6-.391,1.218-.584,1.829C541.626,555.607,541.286,556.677,540.935,557.785Z" transform="translate(-506.723 -551.268)" fill="#fff"/>
    <path id="Path_11546" data-name="Path 11546" d="M66.135,562.433c.33-.988.639-1.906.945-2.826q1.267-3.8,2.534-7.6c.166-.5.237-.549.762-.551.388,0,.776.013,1.162,0a.611.611,0,0,1,.675.5q1.37,4.148,2.76,8.289c.237.71.472,1.421.729,2.193-.458,0-.872.013-1.284-.012-.074,0-.171-.15-.2-.249-.311-.955-.62-1.912-.908-2.875a.385.385,0,0,0-.443-.325q-1.96.017-3.919,0a.369.369,0,0,0-.42.31c-.284.952-.593,1.9-.877,2.849a.36.36,0,0,1-.419.311C66.89,562.419,66.547,562.433,66.135,562.433Zm6.69-4.646c-.049-.16-.085-.283-.124-.406q-.728-2.3-1.454-4.607c-.054-.174-.106-.285-.327-.287s-.277.117-.329.285q-.667,2.132-1.34,4.261l-.237.754Z" transform="translate(-66.135 -551.263)" fill="#fff"/>
    <path id="Path_11547" data-name="Path 11547" d="M402.258,555.348c0,1.163.027,2.326-.012,3.488a6.979,6.979,0,0,1-.262,1.6,2.6,2.6,0,0,1-2.059,1.944,7.131,7.131,0,0,1-3.289-.02,2.789,2.789,0,0,1-2.178-2.441,10.948,10.948,0,0,1-.148-1.781c-.017-2.126,0-4.252-.014-6.378,0-.321.087-.414.408-.409.946.016.943,0,.946.936.008,2.17.011,4.34.035,6.51a4.328,4.328,0,0,0,.16,1.044,1.793,1.793,0,0,0,1.667,1.432,7.825,7.825,0,0,0,1.55,0,1.773,1.773,0,0,0,1.677-1.5,9.357,9.357,0,0,0,.176-1.809c.021-2.06.015-4.119,0-6.179,0-.33.084-.47.427-.429a3.325,3.325,0,0,0,.63,0c.237-.017.3.084.3.31-.008,1.229,0,2.458,0,3.687Z" transform="translate(-372.491 -551.165)" fill="#fff"/>
    <path id="Path_11548" data-name="Path 11548" d="M1108.446,551.34c.023.042.032.051.033.061.076.967.076.967-.877.967q-1.727,0-3.454,0c-.776,0-1.093.307-1.1,1.082-.009.7.01,1.4-.008,2.092-.007.277.106.328.352.326,1.339-.009,2.679,0,4.018,0,.13,0,.259.014.4.022v1.065h-.4c-1.329,0-2.657.007-3.985-.005-.28,0-.392.061-.385.366.019.885,0,1.771.008,2.657,0,.847.3,1.139,1.136,1.14,1.306,0,2.613.006,3.919,0,.262,0,.391.061.382.345-.024.737.223.725-.7.746q-1.925.042-3.851.059a3.465,3.465,0,0,1-.821-.089,1.723,1.723,0,0,1-1.412-1.833c-.019-2.4-.024-4.8,0-7.206a1.741,1.741,0,0,1,1.912-1.883c1.557-.055,3.119.036,4.678.065A.925.925,0,0,1,1108.446,551.34Z" transform="translate(-1032.87 -551.055)" fill="#fff"/>
    <path id="Path_11549" data-name="Path 11549" d="M959.188,561.3h5.96c0,.352.008.668-.008.983,0,.055-.1.126-.164.152a.647.647,0,0,1-.23.01H958.07c-.119,0-.239-.011-.377-.018a2.41,2.41,0,0,1,.322-1.677c1.784-2.546,3.519-5.127,5.271-7.7.074-.109.146-.22.264-.4a3.427,3.427,0,0,0-.41-.053c-1.65,0-3.3-.013-4.949.006-.346,0-.435-.1-.422-.432.031-.833-.1-.708.7-.711,2.037-.006,4.074,0,6.111,0,.461,0,.435,0,.47.444a2,2,0,0,1-.413,1.347c-1.742,2.535-3.459,5.087-5.184,7.634C959.378,561,959.309,561.115,959.188,561.3Z" transform="translate(-898.439 -551.28)" fill="#fff"/>
    <path id="Path_11550" data-name="Path 11550" d="M816.3,557.36c.295-.642.549-1.227.828-1.8.624-1.281,1.266-2.554,1.888-3.836a.441.441,0,0,1,.477-.3c.34.021.683.005,1.087.005-.074.165-.12.283-.177.4-1.091,2.135-2.187,4.268-3.269,6.408a1.635,1.635,0,0,0-.167.69c-.017,1.138-.008,2.278-.008,3.452H815.6v-.361c0-1.029.011-2.059-.008-3.088a1.714,1.714,0,0,0-.171-.722c-1.072-2.12-2.16-4.232-3.244-6.347-.059-.116-.116-.233-.208-.418.49,0,.925-.009,1.358.009.065,0,.145.121.184.2q1.329,2.744,2.649,5.491C816.188,557.2,816.233,557.256,816.3,557.36Z" transform="translate(-762.41 -551.234)" fill="#fff"/>
    <path id="Path_11551" data-name="Path 11551" d="M711.991,562.5c-.917.033-1.8.081-2.682.092-.707.009-1.418.009-2.121-.052a1.716,1.716,0,0,1-1.644-1.794c-.013-2.978-.005-5.956,0-8.933,0-.054.009-.108.019-.216.386,0,.769-.007,1.15.008.055,0,.135.1.153.168a1.319,1.319,0,0,1,.013.33q0,3.968,0,7.937c0,1.173.23,1.4,1.393,1.4h3.668C711.955,561.794,711.971,562.111,711.991,562.5Z" transform="translate(-663.054 -551.401)" fill="#fff"/>
    <path id="Path_11552" data-name="Path 11552" d="M282.737,730.667l-.408,1.269a13.123,13.123,0,0,1-4.154-1.656l.342-.714Z" transform="translate(-264.086 -717.546)" fill="#fff"/>
  </g>
  <g id="Group_38274" data-name="Group 38274" transform="translate(0 53.035)">
    <path id="Path_11553" data-name="Path 11553" d="M389.552,798.6a.643.643,0,0,1,.054.355q0,1.891,0,3.783c0,.066,0,.133,0,.2,0,.085-.035.157-.135.149-.078-.006-.109-.066-.11-.14s0-.155,0-.232q0-2.057,0-4.115Z" transform="translate(-367.825 -798.602)" fill="#67bdc1"/>
    <path id="Path_11554" data-name="Path 11554" d="M1192.855,798.6q0,2.056,0,4.111c0,.077,0,.155,0,.232s-.031.134-.108.141c-.1.009-.13-.063-.135-.149,0-.033,0-.066,0-.1q0-1.99,0-3.979a1.408,1.408,0,0,1,.047-.257Z" transform="translate(-1117.708 -798.602)" fill="#61babe"/>
    <path id="Path_11555" data-name="Path 11555" d="M788.485,818.691a1.023,1.023,0,0,1,1.772.145,1.047,1.047,0,0,1,1.04-.573.836.836,0,0,1,.819.731,20.132,20.132,0,0,1,.047,2.256c0,.095-.02.193-.141.174s-.1-.128-.1-.215c0-.609,0-1.218,0-1.827,0-.588-.233-.893-.686-.91a.872.872,0,0,0-.916.889c-.024.564-.01,1.129-.012,1.693,0,.078,0,.155,0,.233s-.03.135-.11.139c-.1.005-.128-.068-.128-.154,0-.288,0-.576,0-.863,0-.4,0-.8,0-1.2a.714.714,0,0,0-.488-.715.85.85,0,0,0-.9.284,1.114,1.114,0,0,0-.227.713c0,.52.005,1.041-.006,1.561,0,.127.089.35-.11.358-.217.009-.123-.22-.124-.342q-.013-1.2,0-2.391c0-.114-.091-.315.1-.332C788.55,818.326,788.387,818.575,788.485,818.691Z" transform="translate(-740.16 -816.943)" fill="#57b6ba"/>
    <path id="Path_11556" data-name="Path 11556" d="M340.585,822.186a1.234,1.234,0,0,1-1.161.557.988.988,0,0,1-.936-1.057c-.022-.63-.007-1.262-.006-1.892,0-.085-.019-.2.108-.206.156-.012.134.114.135.21,0,.564,0,1.129,0,1.693,0,.7.247,1.018.794,1.031a1.006,1.006,0,0,0,1.074-1.019c.023-.541,0-1.085.014-1.627,0-.1-.072-.286.122-.282s.116.183.117.288q.009,1.229,0,2.457c0,.117.077.318-.111.329-.208.011-.1-.2-.131-.31A1.648,1.648,0,0,1,340.585,822.186Z" transform="translate(-320.329 -818.194)" fill="#58b7bb"/>
    <path id="Path_11557" data-name="Path 11557" d="M190.481,822.139a1.221,1.221,0,0,1-1.162.61.978.978,0,0,1-.954-1c-.025-.652-.008-1.3-.007-1.957,0-.085-.016-.2.114-.2.155,0,.128.125.128.218,0,.564,0,1.128,0,1.692,0,.686.24,1,.762,1.024a1.017,1.017,0,0,0,1.109-1.021c.022-.552,0-1.106.011-1.658,0-.1-.058-.255.121-.25s.117.16.118.258q.006,1.277,0,2.554c0,.1.045.261-.112.266-.194.006-.112-.173-.129-.279A2.258,2.258,0,0,1,190.481,822.139Z" transform="translate(-180.18 -818.197)" fill="#59b7bb"/>
    <path id="Path_11558" data-name="Path 11558" d="M1096.622,819a1.243,1.243,0,0,1,.985-.555.986.986,0,0,1,1.109,1.007c.031.651.008,1.3.008,1.956,0,.088.007.2-.115.2-.146,0-.129-.123-.129-.22,0-.563,0-1.127,0-1.691,0-.7-.247-1.026-.781-1.043a1.03,1.03,0,0,0-1.088,1.045c-.019.53,0,1.061-.013,1.591,0,.114.076.315-.128.311-.168,0-.108-.189-.109-.3,0-.818-.006-1.636,0-2.453,0-.113-.086-.315.113-.32s.092.2.125.312A1.373,1.373,0,0,1,1096.622,819Z" transform="translate(-1027.843 -817.127)" fill="#59b7bb"/>
    <path id="Path_11559" data-name="Path 11559" d="M438.652,822.157a1.213,1.213,0,0,1-1.32.54.9.9,0,0,1-.738-.795,19.619,19.619,0,0,1-.043-2.154c0-.092.008-.19.136-.177s.1.123.1.206c0,.575,0,1.151,0,1.726,0,.665.256.986.79,1a.993.993,0,0,0,1.074-.979c.028-.508.012-1.017.015-1.526,0-.077,0-.155,0-.232s-.013-.192.118-.2.123.1.124.187c0,.144,0,.288,0,.432,0,.719,0,1.438,0,2.158,0,.11.064.294-.1.3-.208.012-.114-.189-.138-.3C438.664,822.306,438.663,822.262,438.652,822.157Z" transform="translate(-411.88 -818.176)" fill="#58b7bb"/>
    <path id="Path_11560" data-name="Path 11560" d="M282.663,820a1.332,1.332,0,0,0,.956,1.325,1.347,1.347,0,0,0,1.556-.509c.063-.088.114-.241.239-.163s0,.2-.054.278a1.476,1.476,0,0,1-1.49.658,1.5,1.5,0,0,1-1.373-1.122,1.551,1.551,0,0,1,.46-1.693,1.627,1.627,0,0,1,2.413.278c.043.075.163.177.048.256s-.165-.042-.226-.127a1.383,1.383,0,0,0-2.529.818Z" transform="translate(-267.992 -817.05)" fill="#55b5b9"/>
    <path id="Path_11561" data-name="Path 11561" d="M955.708,818.455a1.445,1.445,0,0,1,1.286.682c.05.078.184.191.039.278-.115.069-.159-.071-.214-.149a1.359,1.359,0,0,0-1.6-.532,1.417,1.417,0,0,0,.057,2.686,1.356,1.356,0,0,0,1.543-.548c.057-.081.11-.209.221-.14.146.091,0,.2-.044.273a1.618,1.618,0,1,1-1.282-2.55Z" transform="translate(-895.01 -817.135)" fill="#55b5b9"/>
    <path id="Path_11562" data-name="Path 11562" d="M1207.534,822.255l.9-2.38c.024-.062.041-.127.069-.186.045-.095.071-.246.22-.184s.023.174,0,.247c-.333.9-.675,1.8-1.015,2.7q-.222.588-.445,1.177c-.038.1-.065.245-.214.188s-.031-.184,0-.241a1.87,1.87,0,0,0-.037-1.985,17.751,17.751,0,0,1-.757-1.764c-.039-.095-.193-.24-.034-.309.176-.076.19.139.237.246.312.719.614,1.442.921,2.163C1207.416,822.012,1207.461,822.1,1207.534,822.255Z" transform="translate(-1130.351 -818.102)" fill="#55b5b9"/>
    <path id="Path_11563" data-name="Path 11563" d="M1253.822,819.526c-.508,0-1.013,0-1.517,0-.089,0-.236.046-.234-.1s.149-.1.236-.1q.8-.007,1.594,0c.093,0,.216-.051.273.053s-.052.18-.106.259q-.771,1.121-1.544,2.241a.576.576,0,0,0-.159.325h1.45c.1,0,.2,0,.3,0,.068,0,.135.025.138.111s-.068.114-.133.115c-.664,0-1.329.027-1.992-.009-.272-.015-.093-.212-.025-.31.524-.768,1.054-1.531,1.582-2.3A.464.464,0,0,0,1253.822,819.526Z" transform="translate(-1173.138 -817.934)" fill="#58b7bb"/>
    <path id="Path_11564" data-name="Path 11564" d="M654.383,822.176a1.223,1.223,0,0,1-1.266.616.949.949,0,0,1-.851-.947c-.017-.663-.007-1.327-.005-1.991,0-.08-.032-.2.107-.2s.1.124.1.2c0,.586,0,1.173,0,1.759,0,.545.228.88.637.956a1.015,1.015,0,0,0,1.184-.677,1.744,1.744,0,0,0,.091-.587q-.007-.714,0-1.427c0-.085-.053-.228.108-.226.133,0,.1.127.1.205q0,1.344,0,2.688c0,.082.024.2-.116.188-.112-.009-.088-.109-.091-.182C654.38,822.461,654.383,822.361,654.383,822.176Z" transform="translate(-613.261 -818.259)" fill="#53b5b9"/>
    <path id="Path_11565" data-name="Path 11565" d="M404.121,807.552c0-.376-.016-.753.005-1.127.015-.257-.079-.342-.32-.307a.729.729,0,0,1-.166,0c-.081-.007-.2.028-.2-.109s.128-.09.207-.1c.47-.031.461-.03.475-.52,0-.157-.1-.442.116-.446.252,0,.073.281.12.429a.441.441,0,0,1,0,.2c-.046.285.081.368.35.343.114-.01.333-.076.336.079,0,.211-.226.124-.344.113-.28-.025-.354.074-.347.35.019.762.008,1.526,0,2.288,0,.1.049.258-.12.256s-.12-.157-.121-.259C404.119,808.348,404.121,807.95,404.121,807.552Z" transform="translate(-380.98 -804.527)" fill="#5ab7bb"/>
    <path id="Path_11566" data-name="Path 11566" d="M904.552,807.289c0-.387-.014-.774.005-1.16.012-.241-.078-.3-.3-.3-.135,0-.4.1-.393-.087,0-.212.268-.106.407-.1.247.009.3-.092.287-.311-.014-.187,0-.376,0-.564,0-.075.032-.127.119-.118.071.008.085.062.086.118a3.18,3.18,0,0,1,0,.464c-.039.306.048.454.388.41.1-.013.322-.095.314.1-.007.171-.22.1-.333.089-.282-.027-.383.053-.373.359.024.762.01,1.526,0,2.288,0,.093.065.26-.118.246-.141-.01-.087-.157-.088-.245C904.549,808.085,904.552,807.687,904.552,807.289Z" transform="translate(-848.149 -804.251)" fill="#53b5b9"/>
    <path id="Path_11567" data-name="Path 11567" d="M698.818,807.3c0-.376-.014-.753,0-1.128.012-.248-.043-.368-.322-.34-.124.012-.367.086-.365-.09,0-.2.248-.108.376-.1.257.016.336-.078.309-.322a4.2,4.2,0,0,1,0-.5c0-.076-.007-.17.1-.173s.108.089.109.166a4.632,4.632,0,0,1,0,.5c-.022.239.054.343.312.329.13-.007.383-.095.379.1s-.256.093-.391.091c-.227,0-.307.06-.3.3.014.774.008,1.549,0,2.323,0,.1.065.263-.1.269s-.112-.16-.113-.259C698.815,808.071,698.818,807.683,698.818,807.3Z" transform="translate(-656.093 -804.244)" fill="#57b6ba"/>
    <path id="Path_11568" data-name="Path 11568" d="M487.623,819.222a1.233,1.233,0,0,1,.825-.593c.08-.016.188-.066.225.055s-.085.125-.162.15a1.083,1.083,0,0,0-.9,1.209c-.005.487,0,.974,0,1.461,0,.1.035.257-.127.253s-.116-.161-.117-.262q0-1.278,0-2.556c0-.1-.058-.257.111-.262.2-.006.113.172.132.276C487.619,819.014,487.615,819.078,487.623,819.222Z" transform="translate(-459.316 -817.276)" fill="#5cb8bc"/>
    <path id="Path_11569" data-name="Path 11569" d="M1350.164,819.35a1.215,1.215,0,0,1,.855-.663c.082-.018.19-.053.214.075.02.108-.083.109-.153.133a1.139,1.139,0,0,0-.916,1.3c0,.431.007.862-.005,1.293,0,.112.089.319-.112.318-.163,0-.091-.194-.092-.3-.006-.818-.008-1.635,0-2.453,0-.107-.1-.317.116-.306.159.008.068.2.088.3A2.206,2.206,0,0,1,1350.164,819.35Z" transform="translate(-1264.585 -817.335)" fill="#54b5b9"/>
    <path id="Path_11570" data-name="Path 11570" d="M938.6,821.113c0,.443,0,.885,0,1.328,0,.1.02.225-.124.226s-.122-.129-.122-.225q0-1.328,0-2.656c0-.082-.028-.2.1-.207.151-.013.142.106.143.205C938.6,820.227,938.6,820.67,938.6,821.113Z" transform="translate(-880.348 -818.185)" fill="#62bbbf"/>
    <path id="Path_11571" data-name="Path 11571" d="M938.258,801.114c.043-.1-.076-.306.135-.294.184.011.115.2.118.321s.055.286-.118.285C938.187,801.425,938.3,801.229,938.258,801.114Z" transform="translate(-880.26 -800.672)" fill="#6abec2"/>
    <path id="Path_11572" data-name="Path 11572" d="M68.887,804.692q-.754-1.929-1.513-3.856c-.043-.108-.056-.246-.23-.233-.15.011-.158.134-.2.232-.244.616-.476,1.237-.73,1.849-.292.7-.5,1.432-.863,2.1v.133c.169.1.238,0,.291-.143.093-.248.2-.491.285-.742a.3.3,0,0,1,.334-.24q.9.019,1.793,0a.306.306,0,0,1,.338.24c.088.25.19.495.285.742.037.1.085.215.2.167C69.019,804.888,68.919,804.775,68.887,804.692Zm-2.6-1.1c-.128,0-.152-.063-.111-.168.319-.82.639-1.639.989-2.536l1.056,2.7C67.548,803.591,66.915,803.59,66.282,803.591Z" transform="translate(-65.353 -800.469)" fill="#54b5b9"/>
    <path id="Path_11573" data-name="Path 11573" d="M128.6,822.565c.007-.952,0-1.9,0-2.855,0-.332,0-.664,0-1,0-.073.016-.17-.1-.172s-.107.09-.108.167c0,.165,0,.33,0,.552a1.7,1.7,0,0,0-2.526-.387,1.646,1.646,0,0,0-.052,2.35c.723.734,1.639.63,2.577-.319,0,.576,0,1.124,0,1.672,0,.1-.064.267.093.271C128.69,822.852,128.6,822.664,128.6,822.565ZM127,821.475a1.4,1.4,0,1,1,1.4-1.423A1.393,1.393,0,0,1,127,821.475Z" transform="translate(-121.366 -817.145)" fill="#54b5b9"/>
    <path id="Path_11574" data-name="Path 11574" d="M593.318,804.759q-.778-1.991-1.559-3.98c-.038-.1-.076-.179-.2-.18s-.156.105-.191.194q-.772,1.957-1.539,3.917c-.027.07-.117.174,0,.231s.173-.05.21-.145c.1-.257.211-.511.3-.773a.29.29,0,0,1,.34-.23c.287.015.575,0,.863,0s.6.012.9,0a.312.312,0,0,1,.365.242c.092.272.208.535.315.8.031.078.083.142.174.113C593.4,804.913,593.343,804.823,593.318,804.759Zm-.931-1.168c-.552,0-1.1,0-1.655,0-.116,0-.229.015-.155-.174.323-.818.637-1.64.985-2.539.349.9.659,1.711.981,2.518C592.619,803.582,592.536,803.592,592.387,803.591Z" transform="translate(-554.923 -800.467)" fill="#54b5b9"/>
    <path id="Path_11575" data-name="Path 11575" d="M1035.92,804.711q-.769-1.958-1.538-3.917c-.036-.093-.058-.189-.191-.193-.152,0-.174.109-.214.211q-.768,1.958-1.534,3.918c-.027.07-.128.17.005.222s.17-.054.208-.156c.093-.248.208-.489.287-.741a.334.334,0,0,1,.39-.259c.553.014,1.107.018,1.659,0a.385.385,0,0,1,.453.315,7.454,7.454,0,0,0,.287.741.141.141,0,0,0,.185.1c.029-.011.042-.066.059-.1C1035.953,804.792,1035.936,804.752,1035.92,804.711Zm-2.786-1.131,1.051-2.7,1.048,2.7Z" transform="translate(-968.128 -800.468)" fill="#54b5b9"/>
    <path id="Path_11576" data-name="Path 11576" d="M1293.117,819.99c.4.01.8,0,1.194,0s.8,0,1.194,0c.149,0,.214-.041.221-.2a1.566,1.566,0,0,0-.969-1.453,1.545,1.545,0,0,0-1.816.583,1.756,1.756,0,0,0,.176,2.117,1.6,1.6,0,0,0,2.365-.142c.052-.08.183-.191.038-.278-.111-.068-.165.064-.22.145a1.343,1.343,0,0,1-2.368-.53C1292.889,820.064,1292.924,819.985,1293.117,819.99Zm-.182-.5a1.3,1.3,0,0,1,1.359-1.025,1.279,1.279,0,0,1,1.191,1.06c.036.177.011.271-.2.264-.364-.012-.729,0-1.094,0-.342,0-.686-.012-1.028,0C1292.913,819.8,1292.885,819.7,1292.935,819.49Z" transform="translate(-1211.121 -816.937)" fill="#55b5b9"/>
    <path id="Path_11577" data-name="Path 11577" d="M511.8,819.995c.387.012.774,0,1.161,0s.8,0,1.195,0c.146,0,.215-.032.223-.2a1.571,1.571,0,0,0-1.16-1.517,1.534,1.534,0,0,0-1.711.783,1.721,1.721,0,0,0,.355,2.064,1.661,1.661,0,0,0,1.919.118,1.25,1.25,0,0,0,.418-.463c.026-.049.059-.1.009-.15a.12.12,0,0,0-.177.013c-.052.056-.086.128-.134.188a1.264,1.264,0,0,1-1.354.4,1.227,1.227,0,0,1-.959-.991C511.54,820.058,511.6,819.988,511.8,819.995Zm-.225-.441a1.275,1.275,0,0,1,1.336-1.084,1.293,1.293,0,0,1,1.238,1.163c.01.16-.075.157-.179.157h-1.094c-.365,0-.73-.007-1.094,0C511.6,819.8,511.559,819.723,511.577,819.554Z" transform="translate(-481.683 -816.942)" fill="#55b5b9"/>
    <path id="Path_11578" data-name="Path 11578" d="M238.632,819.3a.982.982,0,0,0-.9-.868,1.089,1.089,0,0,0-1.263.67c-.031.1-.1.242.033.291.171.063.145-.124.179-.211a.866.866,0,0,1,.985-.548.8.8,0,0,1,.755.713,7.6,7.6,0,0,1,0,.763,1.534,1.534,0,0,0-1.284-.349.949.949,0,0,0-.838.849.9.9,0,0,0,.7.989,1.388,1.388,0,0,0,1.4-.32c.07.111-.039.3.154.3.12.005.12-.109.118-.2C238.657,820.7,238.713,820,238.632,819.3Zm-1.013,2.133c-.055,0-.11,0-.165,0a.841.841,0,0,1-.849-.39.669.669,0,0,1,.036-.75.983.983,0,0,1,.98-.334.754.754,0,0,1,.806.739C238.427,821.128,238.124,821.4,237.619,821.437Z" transform="translate(-224.939 -817.108)" fill="#56b6b9"/>
    <path id="Path_11579" data-name="Path 11579" d="M1145.548,821.273c.01-.619.015-1.238,0-1.856a.985.985,0,0,0-.912-.968,1.1,1.1,0,0,0-1.266.669c-.026.1-.093.242.043.29s.13-.107.161-.192a.886.886,0,0,1,1.039-.562.827.827,0,0,1,.725.786c.019.225,0,.452,0,.7a1.521,1.521,0,0,0-1.293-.36.91.91,0,0,0-.838.876.893.893,0,0,0,.755.977,1.377,1.377,0,0,0,1.343-.335c.088.092-.04.306.139.3C1145.644,821.581,1145.547,821.383,1145.548,821.273Zm-.8.146a1.768,1.768,0,0,1-.308.037c-.8,0-1.211-.482-.959-1.031a.864.864,0,0,1,.944-.453.843.843,0,0,1,.861.489A.7.7,0,0,1,1144.751,821.418Z" transform="translate(-1071.591 -817.122)" fill="#54b5b9"/>
    <path id="Path_11580" data-name="Path 11580" d="M861.471,821.159c.006-.63.013-1.261,0-1.891a.99.99,0,0,0-.822-.951,1.158,1.158,0,0,0-1.31.546.615.615,0,0,0-.061.187c-.009.08-.06.2.066.221s.117-.091.146-.173a.851.851,0,0,1,.989-.588.792.792,0,0,1,.763.7,5.589,5.589,0,0,1,.007.788,1.455,1.455,0,0,0-1.26-.365.914.914,0,0,0-.854.826.89.89,0,0,0,.7,1.015,1.367,1.367,0,0,0,1.392-.331c.081.117-.047.323.146.312C861.548,821.449,861.47,821.265,861.471,821.159Zm-.817.125a1.882,1.882,0,0,1-.313.032c-.773,0-1.166-.468-.941-1.018.139-.342.459-.49,1-.465a.826.826,0,0,1,.829.535A.719.719,0,0,1,860.654,821.284Z" transform="translate(-806.387 -816.981)" fill="#54b5b9"/>
    <path id="Path_11581" data-name="Path 11581" d="M729.017,818.482a1.6,1.6,0,0,0-1.636,1.6,1.63,1.63,0,0,0,1.644,1.642,1.613,1.613,0,0,0,1.611-1.633A1.574,1.574,0,0,0,729.017,818.482Zm-.01,3.01a1.4,1.4,0,1,1,1.416-1.4A1.392,1.392,0,0,1,729.007,821.492Z" transform="translate(-683.394 -817.161)" fill="#55b5b9"/>
  </g>
  <g id="Group_38275" data-name="Group 38275" transform="translate(2.06 7.182)">
    <path id="Path_11582" data-name="Path 11582" d="M201.353,271.006v-1.513c.519,0,.97,0,1.421,0a3.48,3.48,0,0,0,1.649-.439,1.887,1.887,0,0,0,1.052-1.782q-.01-5.148,0-10.3c0-.449,0-.449.449-.449.266,0,.533.02.8-.005.306-.029.386.1.366.381s0,.553,0,.83c0,2.557,0,5.115,0,7.672,0,.309.051.442.414.441,4.7-.014,9.41-.006,14.115-.013a7.687,7.687,0,0,0,1.386-.105,1.664,1.664,0,0,0,1.5-1.83c.007-2.258,0-4.517,0-6.775,0-.132,0-.264,0-.447.51,0,1-.005,1.5.007.056,0,.136.094.157.16a1.036,1.036,0,0,1,.012.3c0,2.148-.034,4.3.011,6.443a3.587,3.587,0,0,1-3.422,3.687c-.528.046-1.06.063-1.591.063q-6.792.007-13.584,0h-.458c-.014.128-.03.234-.036.341a3.177,3.177,0,0,1-3.34,3.251c-.4.013-.791.053-1.187.081Z" transform="translate(-194.376 -246.68)" fill="#fff"/>
    <path id="Path_11583" data-name="Path 11583" d="M96.353,269.7c.77-.039,1.542-.053,2.308-.129a2.274,2.274,0,0,0,.793-.317,1.848,1.848,0,0,0,1.028-1.759q-.009-5.13,0-10.259v-.481c.505,0,.987,0,1.468.007.046,0,.111.094.129.156a.972.972,0,0,1,.012.264c0,3.519.006,7.039-.008,10.558a4,4,0,0,1-.178,1.172,3.073,3.073,0,0,1-3.133,2.235c-.407.016-.813.054-1.22.082h-1.2Z" transform="translate(-96.353 -246.903)" fill="#fff"/>
    <path id="Path_11584" data-name="Path 11584" d="M783.636,188.075c.908,0,1.748.019,2.587-.005a1.532,1.532,0,0,0,1.45-1.828c-.015-.078-.176-.179-.271-.181-.775-.015-1.55-.008-2.325-.009a5.431,5.431,0,0,1-5.427-4.409,5.539,5.539,0,0,1,3.314-6.124,3.631,3.631,0,0,1,1.539-.33c1.45.024,2.9.008,4.351.008.438,0,.439,0,.439.426q0,4.235,0,8.471c0,.452,0,.453.453.453h20.4a1.577,1.577,0,0,0,1.771-1.636c.025-1.08-.06-2.165-.144-3.244a.971.971,0,0,0-.925-.921,3.784,3.784,0,0,0-.627-.049c-1.4,0-2.79-.009-4.185,0a2.813,2.813,0,0,1-2.366-1.113,2.372,2.372,0,0,1-.39-1.479c-.048-1.25-.07-2.5-.076-3.752a2.847,2.847,0,0,1,2.777-2.892c1.771-.035,3.543-.009,5.315-.017.222,0,.29.091.286.3-.009.354-.017.71,0,1.063.016.287-.106.351-.37.35-1.639-.01-3.277,0-4.916-.007a1.257,1.257,0,0,0-1.031.356,1.236,1.236,0,0,0-.351.684q-.009,1.991.079,3.982c.026.58.405.861,1.035.87.686.01,1.373,0,2.059,0,.9,0,1.794-.009,2.691,0a2.76,2.76,0,0,1,2.8,2.18,8.967,8.967,0,0,1,.127,1.652,18.641,18.641,0,0,1-.117,3.005,2.454,2.454,0,0,1-2.433,2.1c-.407.035-.817.057-1.225.057q-10.1.005-20.2-.005c-.344,0-.453.085-.449.436a3.45,3.45,0,0,1-.621,1.929,2.687,2.687,0,0,1-2.336,1.16c-.785.034-1.571.043-2.356.083-.272.014-.345-.089-.335-.341C783.648,188.931,783.636,188.556,783.636,188.075Zm4.014-3.471c.018-.2.037-.3.037-.41,0-2.346,0-4.692.005-7.038,0-.254-.076-.347-.342-.343-.863.015-1.726,0-2.589.008a3.074,3.074,0,0,0-1.547.43,3.873,3.873,0,0,0-1.892,3.88A3.806,3.806,0,0,0,784.3,184.4,29.316,29.316,0,0,0,787.65,184.6Z" transform="translate(-734.149 -165.392)" fill="#fff"/>
    <path id="Path_11585" data-name="Path 11585" d="M600.393,195.861l-.177-1.462h3.332a1.951,1.951,0,0,0,2.066-1.711,5.027,5.027,0,0,0,.074-.89q.007-5.68,0-11.361V180c.453,0,.881-.006,1.309.007.057,0,.137.093.161.159a.8.8,0,0,1,.01.263c0,4.019.006,8.039-.008,12.058a4.519,4.519,0,0,1-.183,1.271,2.708,2.708,0,0,1-2.741,2.129c-1.239.043-2.48.01-3.72.009A.674.674,0,0,1,600.393,195.861Z" transform="translate(-566.739 -175.244)" fill="#fff"/>
    <path id="Path_11586" data-name="Path 11586" d="M1319.885,169.741h1.581V186.3h-1.581Z" transform="translate(-1238.589 -165.671)" fill="#fff"/>
    <path id="Path_11587" data-name="Path 11587" d="M731.544,186.077c-.5,0-.953.008-1.4-.009-.07,0-.16-.109-.2-.188a.665.665,0,0,1-.011-.262q0-7.823,0-15.646c0-.492,0-.492.485-.493.288,0,.576.009.864,0,.2-.008.283.076.264.274-.008.088,0,.177,0,.266v16.06Z" transform="translate(-687.828 -165.425)" fill="#fff"/>
    <path id="Path_11588" data-name="Path 11588" d="M618.788,220.821h-1.575c-.011-.125-.029-.24-.029-.355q0-5.443-.007-10.886c0-.305.091-.415.394-.394.319.022.641.01.962,0,.181,0,.267.072.255.257-.005.088,0,.177,0,.265q0,5.31,0,10.62Z" transform="translate(-582.571 -202.493)" fill="#fff"/>
    <path id="Path_11589" data-name="Path 11589" d="M260.54,195.821a.964.964,0,0,1,.963-.968.977.977,0,1,1-.017,1.954A.957.957,0,0,1,260.54,195.821Z" transform="translate(-249.631 -189.115)" fill="#fff"/>
    <path id="Path_11590" data-name="Path 11590" d="M543.588,443.735a1.006,1.006,0,0,1,.973.97.982.982,0,0,1-.982.957.943.943,0,0,1-.975-.982A.965.965,0,0,1,543.588,443.735Z" transform="translate(-512.954 -421.461)" fill="#fff"/>
    <path id="Path_11591" data-name="Path 11591" d="M502.35,445.654a.917.917,0,0,1-.955-.964.932.932,0,0,1,.96-.964.957.957,0,0,1,.962.969A.939.939,0,0,1,502.35,445.654Z" transform="translate(-474.483 -421.453)" fill="#fff"/>
    <path id="Path_11592" data-name="Path 11592" d="M1317.969,111.133h-1.926v-.482l.349-.1c-.041-.08-.071-.148-.109-.21a1.2,1.2,0,0,1,.955-1.828c.185-.022.375-.011.562-.024s.28.064.279.266-.062.286-.267.28a2.29,2.29,0,0,0-.427.036c-.447.071-.728.333-.736.676a.888.888,0,0,0,.706.812,2.038,2.038,0,0,0,.3.035C1318.066,110.629,1318.093,110.671,1317.969,111.133Z" transform="translate(-1235.003 -108.489)" fill="#fff"/>
  </g>
</svg>
