<svg xmlns="http://www.w3.org/2000/svg" width="116.531" height="48.294" viewBox="0 0 116.531 48.294">
  <g id="Group_38277" data-name="Group 38277" transform="translate(0.001 0)">
    <g id="_Group_" data-name=" Group " transform="translate(69.116 0)">
      <g id="Group_38271" data-name="Group 38271" transform="translate(7.097 8.613)">
        <path id="Path_11535" data-name="Path 11535" d="M1908.839,315.4a2.282,2.282,0,0,1-.642,1.159,1.5,1.5,0,0,1-.307.232.244.244,0,0,0-.144.326,22.186,22.186,0,0,1,.5,5.8,23.319,23.319,0,0,1-17.907,21.7,22.007,22.007,0,0,1-4.751.617c-.6.015-1.191-.02-1.786-.017-.077,0-.167-.033-.217.059a2.047,2.047,0,0,1-1.376,1h-.58a2.7,2.7,0,0,1-.831-.364,1.9,1.9,0,1,1,3-1.736c.014.136.022.212.2.219a22.491,22.491,0,0,0,13.835-4.031c.133-.093.163-.151.056-.3q-2.682-3.648-5.35-7.306a.233.233,0,0,0-.331-.1,1.916,1.916,0,0,1-2.108-.393,1.885,1.885,0,0,1-.526-2.077,1.926,1.926,0,0,1,1.613-1.355,1.992,1.992,0,0,1,2.033,1.011,1.97,1.97,0,0,1-.219,2.234.214.214,0,0,0-.012.324q2.688,3.658,5.364,7.325c.107.147.168.133.293.036a22.52,22.52,0,0,0,7.057-9.181c.089-.21-.012-.223-.162-.246q-1.775-.273-3.549-.549c-.468-.073-.935-.155-1.4-.22a.491.491,0,0,1-.351-.222c-1.01-1.385-2.027-2.766-3.035-4.152a.249.249,0,0,0-.346-.109,1.621,1.621,0,0,1-2.1-1.14,1.636,1.636,0,1,1,3.195-.694,1.52,1.52,0,0,1-.3,1.253c-.112.14-.087.22.006.345q1.455,1.972,2.9,3.952a.506.506,0,0,0,.364.234q2.407.364,4.809.756c.239.039.314-.044.385-.248a23.169,23.169,0,0,0,1.242-5.708,22.448,22.448,0,0,0-.4-6.5c-.035-.169-.082-.254-.284-.261a2,2,0,1,1,2.124-2.349.377.377,0,0,0,.042.083Z" transform="translate(-1868.522 -306.604)" fill="#53b5b9"/>
        <path id="Path_11536" data-name="Path 11536" d="M1875.411,178.6a2.194,2.194,0,0,1,.935.515,1.631,1.631,0,0,1,.461.961c.016.154.07.2.216.219,1.8.27,3.59.548,5.386.822a.48.48,0,0,1,.321.23q1.8,2.455,3.6,4.907c.5.681,1.005,1.359,1.5,2.046.1.138.159.149.3.047.637-.479,1.288-.94,1.924-1.42a.4.4,0,0,1,.438-.073,4.091,4.091,0,0,0,.509.127c-.377.278-.73.539-1.084.8q-2.173,1.591-4.348,3.178a.59.59,0,0,0-.248.437c-.221,1.478-.454,2.955-.685,4.431-.073.468-.163.935-.219,1.405a.632.632,0,0,1-.3.464q-2.876,2.1-5.75,4.206a.25.25,0,0,0-.107.348,1.678,1.678,0,0,1-1.173,2.174,1.7,1.7,0,1,1-.737-3.306,1.63,1.63,0,0,1,1.338.331.2.2,0,0,0,.286,0q2.842-2.087,5.69-4.167a.4.4,0,0,0,.178-.292q.4-2.61.809-5.217c.037-.238.08-.476.109-.715a.64.64,0,0,1,.293-.469c.752-.54,1.493-1.1,2.246-1.634.15-.108.154-.174.049-.316q-2.485-3.374-4.96-6.755a.458.458,0,0,0-.325-.21c-1.422-.213-2.844-.437-4.265-.657-.27-.042-.541-.078-.809-.13a.252.252,0,0,0-.335.161,1.663,1.663,0,0,1-1.939.894,1.694,1.694,0,0,1,.041-3.292c.046-.011.1-.006.131-.05Z" transform="translate(-1862.257 -178.602)" fill="#53b5b9"/>
        <path id="Path_11537" data-name="Path 11537" d="M1661.682,641.415a1.628,1.628,0,0,1-1.548,1.639,1.594,1.594,0,0,1-1.689-1.342c-.031-.2-.11-.267-.316-.3-1.669-.245-3.336-.509-5-.763a.617.617,0,0,1-.433-.268q-2.5-3.421-5.005-6.84c-.132-.181-.205-.171-.367-.051-1.586,1.171-3.18,2.332-4.767,3.5-.162.12-.207.088-.271-.083-.128-.346-.137-.341.166-.563q3.176-2.325,6.348-4.656c.162-.12.226-.093.321.061.182.294.189.289-.082.487-.293.213-.579.436-.879.639-.133.09-.136.153-.044.278q1.335,1.806,2.66,3.619,1.143,1.558,2.283,3.117a.428.428,0,0,0,.306.2c1.422.215,2.843.439,4.264.66.214.033.432.052.642.1.172.041.246,0,.325-.168a1.607,1.607,0,0,1,1.84-.854A1.635,1.635,0,0,1,1661.682,641.415Z" transform="translate(-1642.198 -609.724)" fill="#53b5b9"/>
        <path id="Path_11538" data-name="Path 11538" d="M1796.423,458.254l1.8-1.322q1.947-1.427,3.9-2.85a.21.21,0,0,0,.09-.293,1.625,1.625,0,0,1,1.1-2.118,1.637,1.637,0,0,1,1.358,2.932,1.587,1.587,0,0,1-1.853-.026.282.282,0,0,0-.409.011c-1.71,1.26-3.427,2.512-5.136,3.773-.165.122-.3.184-.488.048A1.855,1.855,0,0,0,1796.423,458.254Z" transform="translate(-1788.969 -438.414)" fill="#53b5b9"/>
        <path id="Path_11539" data-name="Path 11539" d="M1682.229,295.355a.344.344,0,0,1,.076-.042c.173-.036.375-.24.5-.109a.926.926,0,0,1,.37.839c-.281,1.688-.533,3.38-.8,5.069-.028.174.078.2.184.255a1.566,1.566,0,0,1,.9,1.508,1.636,1.636,0,1,1-1.933-1.647.316.316,0,0,0,.308-.311q.359-2.419.742-4.835a.424.424,0,0,0-.094-.374C1682.393,295.6,1682.315,295.475,1682.229,295.355Z" transform="translate(-1678.346 -289.527)" fill="#53b5b9"/>
      </g>
      <g id="Group_38272" data-name="Group 38272" transform="translate(0 0)">
        <path id="Path_11540" data-name="Path 11540" d="M1814.229,944.793a.179.179,0,0,0-.006-.041h.738c0,.013,0,.027-.007.04Z" transform="translate(-1798.811 -899.109)" fill="#275482"/>
        <path id="Path_11541" data-name="Path 11541" d="M1495.393,513.188l-.021,0-.019-.009v-.58A1.367,1.367,0,0,1,1495.393,513.188Z" transform="translate(-1495.353 -487.846)" fill="#275482"/>
        <path id="Path_11542" data-name="Path 11542" d="M1538.9,13.256a2.8,2.8,0,0,0-.262-.8,13.689,13.689,0,0,0-2.355-3.4A23.016,23.016,0,0,0,1515.7,1.219a3.964,3.964,0,0,1-1.41-.058,22.577,22.577,0,0,0-6.259-.752,5.485,5.485,0,0,0-2.561.689,1,1,0,0,0-.129,1.81,7.051,7.051,0,0,0,1.593.944c.072.031.159.054.166.155s-.07.134-.141.175a23.14,23.14,0,0,0-5.885,4.882,22.9,22.9,0,0,0-5.635,13.275,4.964,4.964,0,0,1-.084.93v1.885a2.516,2.516,0,0,1,.025.549,15.24,15.24,0,0,0,.293,2.947,21.907,21.907,0,0,0,1.715,5.391,24.5,24.5,0,0,0,2.379,4.055,23.15,23.15,0,0,0,3.875,4.188,22.332,22.332,0,0,0,5.308,3.313,4.224,4.224,0,0,0,1.882.46,6.043,6.043,0,0,0,.673-.015c.7-.092,1.055-.513.958-1.13a1.567,1.567,0,0,0-.221-.557,5.938,5.938,0,0,0-1.181-1.365,40.386,40.386,0,0,1-3-2.8,8.658,8.658,0,0,1-1.548-2.175,2.688,2.688,0,0,1,.95-3.605,9.79,9.79,0,0,1,1.651-.945c1.091-.5,2.233-.863,3.364-1.253a22.083,22.083,0,0,0,2.663-1.06,3.064,3.064,0,0,0,1.2-.981,1.15,1.15,0,0,0-.317-1.7,2.307,2.307,0,0,0-.7-.318,12.391,12.391,0,0,0-2.411-.333c-1.646-.122-3.3-.109-4.943-.29a12.431,12.431,0,0,1-3.924-1.03,5.071,5.071,0,0,1-3.084-6.1,5.156,5.156,0,0,1,3.7-4.008,10.2,10.2,0,0,1,4.54-.242,16.255,16.255,0,0,1,4.141,1.255c.563.241.573.291.159.736a6.924,6.924,0,0,0-1.152,1.483c-.454.872-.2,1.4.766,1.578a8.353,8.353,0,0,0,3.591-.127,9.791,9.791,0,0,0,2.878-1.144,2.526,2.526,0,0,1,1.613-.432c.658.055,1.315.12,1.974.147a28.789,28.789,0,0,0,4.34-.182,22.02,22.02,0,0,0,5.594-1.318,14.9,14.9,0,0,0,5.2-3.3A1.8,1.8,0,0,0,1538.9,13.256Zm-11.145-2.291a2.047,2.047,0,1,1,.018-4.094,2.094,2.094,0,0,1,2.058,2.037A2.054,2.054,0,0,1,1527.758,10.964Z" transform="translate(-1495.353 -0.398)" fill="#275482"/>
      </g>
    </g>
    <g id="Group_38273" data-name="Group 38273" transform="translate(0.037 26.499)">
      <path id="Path_11543" data-name="Path 11543" d="M227.168,552.732c.082-.665.121-1.392.271-2.095a2.26,2.26,0,0,1,2.277-1.95,8.11,8.11,0,0,1,1.683.054,2.173,2.173,0,0,1,1.9,1.8,9.818,9.818,0,0,1,.024,4.4,2.225,2.225,0,0,1-2.2,1.95,7.3,7.3,0,0,1-1.8-.053,2.25,2.25,0,0,1-1.93-2.063C227.277,554.127,227.244,553.458,227.168,552.732Zm1.06.058.054.005a4.455,4.455,0,0,0,.005.651,12.374,12.374,0,0,0,.29,1.579,1.361,1.361,0,0,0,1.151.978,4,4,0,0,0,.959.052,1.607,1.607,0,0,0,1.621-1.354,7.943,7.943,0,0,0,.16-2.684,7.226,7.226,0,0,0-.264-1.413,1.391,1.391,0,0,0-1.155-1.009,3.786,3.786,0,0,0-.959-.056,1.616,1.616,0,0,0-1.659,1.483C228.323,551.6,228.294,552.2,228.228,552.79Z" transform="translate(-219.385 -548.667)" fill="#275482"/>
      <path id="Path_11544" data-name="Path 11544" d="M1243.989,557.951c-.306,0-.611.011-.913-.009-.059,0-.139-.116-.161-.192-.215-.732-.419-1.467-.627-2.2a1.085,1.085,0,0,0-1.249-.947H1239.4c-.008.119-.02.221-.02.323,0,.918-.006,1.836,0,2.754,0,.2-.047.3-.268.279a4.73,4.73,0,0,0-.531,0c-.121,0-.182-.045-.17-.171,0-.024,0-.048,0-.072q0-3.769,0-7.537c0-.152.027-.239.207-.242,1.069-.012,2.139-.04,3.208-.044a2.623,2.623,0,0,1,.687.115,1.506,1.506,0,0,1,1.169,1.43,6.965,6.965,0,0,1-.04,1.606,1.312,1.312,0,0,1-1.136,1.13c-.077.015-.152.041-.235.064.015.033.02.067.035.073a1.508,1.508,0,0,1,.908,1.032c.271.832.517,1.673.773,2.51A.489.489,0,0,1,1243.989,557.951Zm-4.592-4.234c.783,0,1.547.044,2.3-.013a.948.948,0,0,0,1-.976,4.055,4.055,0,0,0-.022-1.1.936.936,0,0,0-.976-.884c-.689-.035-1.381-.018-2.072-.03-.2,0-.254.081-.252.274.01.836,0,1.672,0,2.509C1239.381,553.572,1239.392,553.65,1239.4,553.717Z" transform="translate(-1181.752 -549.829)" fill="#275482"/>
      <path id="Path_11545" data-name="Path 11545" d="M538.08,559.444c.032-.119.05-.2.078-.286q1.21-3.635,2.422-7.27c.133-.4.18-.432.606-.432.274,0,.548.009.821,0s.4.128.481.374q1.078,3.261,2.17,6.518c.116.349.232.7.362,1.092-.34,0-.642.009-.942-.009-.051,0-.115-.118-.14-.192-.224-.687-.447-1.375-.656-2.067-.052-.173-.124-.248-.314-.247q-1.437.013-2.875,0a.253.253,0,0,0-.287.216c-.21.7-.44,1.394-.65,2.094-.047.158-.116.223-.284.215C538.618,559.434,538.362,559.444,538.08,559.444Zm2.077-3.384h2.757a1.19,1.19,0,0,0-.022-.119c-.376-1.195-.75-2.39-1.134-3.581a.257.257,0,0,0-.2-.133.293.293,0,0,0-.224.14c-.154.439-.285.886-.425,1.33C540.659,554.475,540.412,555.254,540.157,556.059Z" transform="translate(-515.269 -551.318)" fill="#275482"/>
      <path id="Path_11546" data-name="Path 11546" d="M66.135,559.439c.24-.719.464-1.387.687-2.055l1.843-5.532c.12-.361.173-.4.554-.4.282,0,.564.009.846,0a.444.444,0,0,1,.491.36q1,3.017,2.008,6.03c.172.517.343,1.034.53,1.6-.333,0-.634.009-.934-.008-.054,0-.124-.109-.148-.181-.226-.695-.451-1.391-.66-2.091a.28.28,0,0,0-.322-.237q-1.425.012-2.851,0a.268.268,0,0,0-.305.226c-.206.693-.431,1.38-.638,2.073a.262.262,0,0,1-.3.226C66.684,559.429,66.435,559.439,66.135,559.439ZM71,556.059c-.035-.117-.062-.206-.09-.3q-.53-1.675-1.058-3.351c-.04-.126-.077-.207-.238-.209s-.2.085-.24.208q-.485,1.551-.975,3.1l-.172.548Z" transform="translate(-66.135 -551.313)" fill="#275482"/>
      <path id="Path_11547" data-name="Path 11547" d="M400.088,554.257c0,.846.02,1.692-.009,2.537a5.073,5.073,0,0,1-.19,1.161,1.889,1.889,0,0,1-1.5,1.414,5.186,5.186,0,0,1-2.393-.015,2.029,2.029,0,0,1-1.585-1.776,7.958,7.958,0,0,1-.108-1.3c-.012-1.547,0-3.093-.01-4.64,0-.233.063-.3.3-.3.688.011.686,0,.689.681.006,1.579.008,3.157.025,4.736a3.146,3.146,0,0,0,.117.76,1.3,1.3,0,0,0,1.213,1.042,5.7,5.7,0,0,0,1.128,0,1.29,1.29,0,0,0,1.22-1.092,6.81,6.81,0,0,0,.128-1.316c.015-1.5.011-3,0-4.495,0-.24.061-.342.311-.312a2.422,2.422,0,0,0,.459,0c.173-.012.219.061.217.225-.006.894,0,1.788,0,2.682Z" transform="translate(-378.434 -551.214)" fill="#275482"/>
      <path id="Path_11548" data-name="Path 11548" d="M1106.6,551.308c.016.031.023.037.024.044.055.7.055.7-.638.7-.837,0-1.675,0-2.512,0-.565,0-.795.224-.8.787-.007.507.007,1.015-.006,1.522-.005.2.078.239.256.238.974-.007,1.949,0,2.923,0,.094,0,.188.01.29.016v.775h-.29c-.966,0-1.933.005-2.9,0-.2,0-.285.044-.28.266.014.644,0,1.288.006,1.932,0,.616.217.829.827.829.95,0,1.9,0,2.85,0,.191,0,.285.044.278.251-.018.536.162.528-.513.542q-1.4.031-2.8.043a2.517,2.517,0,0,1-.6-.064,1.253,1.253,0,0,1-1.027-1.333c-.014-1.747-.018-3.495,0-5.242a1.266,1.266,0,0,1,1.391-1.37c1.132-.04,2.269.026,3.4.048A.675.675,0,0,1,1106.6,551.308Z" transform="translate(-1051.624 -551.101)" fill="#275482"/>
      <path id="Path_11549" data-name="Path 11549" d="M958.776,558.623h4.336c0,.256.006.486-.006.715,0,.04-.071.091-.119.111a.471.471,0,0,1-.167.007h-4.856c-.087,0-.174-.008-.274-.013a1.753,1.753,0,0,1,.234-1.22c1.3-1.852,2.56-3.729,3.834-5.6.054-.079.106-.16.192-.29a2.526,2.526,0,0,0-.3-.038c-1.2,0-2.4-.009-3.6,0-.252,0-.316-.075-.307-.314.023-.606-.071-.515.509-.517,1.482,0,2.964,0,4.446,0,.335,0,.316,0,.342.323a1.451,1.451,0,0,1-.3.98c-1.267,1.844-2.516,3.7-3.771,5.553C958.914,558.4,958.864,558.485,958.776,558.623Z" transform="translate(-914.585 -551.331)" fill="#275482"/>
      <path id="Path_11550" data-name="Path 11550" d="M815.117,555.74c.214-.467.4-.893.6-1.31.454-.932.921-1.858,1.373-2.791a.321.321,0,0,1,.347-.222c.248.015.5,0,.791,0-.054.12-.087.206-.129.288-.794,1.553-1.591,3.1-2.378,4.662a1.189,1.189,0,0,0-.122.5c-.012.828-.006,1.657-.006,2.511h-.991v-.263c0-.749.008-1.5-.006-2.246a1.246,1.246,0,0,0-.125-.525c-.78-1.542-1.571-3.079-2.359-4.617-.043-.084-.084-.169-.152-.3.357,0,.673-.006.988.007.047,0,.105.088.134.147q.966,2,1.927,3.994C815.037,555.623,815.069,555.665,815.117,555.74Z" transform="translate(-775.917 -551.284)" fill="#275482"/>
      <path id="Path_11551" data-name="Path 11551" d="M710.232,559.528c-.667.024-1.309.059-1.951.067-.514.006-1.031.006-1.543-.038a1.248,1.248,0,0,1-1.2-1.3c-.009-2.166,0-4.332,0-6.5,0-.039.007-.078.014-.157.281,0,.559-.005.837.006.04,0,.1.073.111.122a.969.969,0,0,1,.009.24q0,2.887,0,5.774c0,.854.167,1.02,1.014,1.02h2.668Z" transform="translate(-674.633 -551.454)" fill="#275482"/>
      <path id="Path_11552" data-name="Path 11552" d="M281.493,730.367l-.3.923a9.541,9.541,0,0,1-3.022-1.205l.249-.519Z" transform="translate(-267.926 -720.823)" fill="#275482"/>
    </g>
    <g id="Group_38274" data-name="Group 38274" transform="translate(-0.001 38.579)">
      <path id="Path_11553" data-name="Path 11553" d="M389.5,798.6a.468.468,0,0,1,.039.259q0,1.376,0,2.752c0,.048,0,.1,0,.145s-.025.114-.1.109c-.057,0-.079-.048-.08-.1s0-.113,0-.169q0-1.5,0-2.993Z" transform="translate(-373.693 -798.602)" fill="#53b5b9"/>
      <path id="Path_11554" data-name="Path 11554" d="M1192.787,798.6q0,1.5,0,2.991c0,.056,0,.113,0,.169s-.022.1-.079.1c-.073.006-.094-.046-.1-.108,0-.024,0-.048,0-.072q0-1.447,0-2.895a1.049,1.049,0,0,1,.034-.187Z" transform="translate(-1138.123 -798.602)" fill="#53b5b9"/>
      <path id="Path_11555" data-name="Path 11555" d="M788.4,818.57a.744.744,0,0,1,1.289.106.761.761,0,0,1,.757-.417.608.608,0,0,1,.6.532,14.624,14.624,0,0,1,.034,1.641c0,.069-.014.141-.1.127s-.073-.093-.073-.156c0-.443,0-.886,0-1.329,0-.428-.169-.65-.5-.662a.634.634,0,0,0-.666.647c-.018.41-.007.821-.009,1.232,0,.056,0,.113,0,.169s-.022.1-.08.1c-.074,0-.093-.049-.094-.112,0-.209,0-.419,0-.628,0-.29,0-.58,0-.87a.519.519,0,0,0-.355-.52.618.618,0,0,0-.651.206.81.81,0,0,0-.165.519c0,.378,0,.757,0,1.135,0,.092.064.255-.08.261s-.089-.16-.09-.249q-.01-.87,0-1.74c0-.083-.066-.229.072-.242C788.451,818.3,788.332,818.486,788.4,818.57Z" transform="translate(-753.25 -817.299)" fill="#53b5b9"/>
      <path id="Path_11556" data-name="Path 11556" d="M340.01,821.478a.9.9,0,0,1-.845.405.719.719,0,0,1-.681-.768c-.016-.458,0-.918,0-1.377,0-.062-.014-.143.078-.15.113-.009.1.083.1.153,0,.411,0,.821,0,1.232,0,.509.18.74.577.75a.731.731,0,0,0,.781-.741c.017-.394,0-.789.01-1.183,0-.076-.052-.208.089-.205s.084.133.085.209q.007.894,0,1.787c0,.085.056.232-.08.239s-.075-.143-.1-.226A1.219,1.219,0,0,1,340.01,821.478Z" transform="translate(-325.275 -818.574)" fill="#53b5b9"/>
      <path id="Path_11557" data-name="Path 11557" d="M189.9,821.445a.889.889,0,0,1-.845.443.711.711,0,0,1-.694-.729c-.018-.474-.006-.949-.005-1.424,0-.062-.012-.142.083-.144.113,0,.093.091.093.158,0,.41,0,.82,0,1.231,0,.5.174.731.554.745a.74.74,0,0,0,.806-.743c.016-.4,0-.8.008-1.206,0-.07-.042-.185.088-.182s.085.117.085.188q0,.929,0,1.858c0,.074.033.19-.081.193-.141,0-.082-.126-.094-.2A1.643,1.643,0,0,1,189.9,821.445Z" transform="translate(-182.408 -818.577)" fill="#53b5b9"/>
      <path id="Path_11558" data-name="Path 11558" d="M1096.547,818.849a.9.9,0,0,1,.716-.4.717.717,0,0,1,.807.732c.022.473.006.948.006,1.423,0,.064,0,.145-.083.147-.107,0-.094-.089-.094-.16,0-.41,0-.82,0-1.23,0-.508-.18-.746-.568-.759a.749.749,0,0,0-.791.76c-.014.385,0,.772-.009,1.157,0,.083.055.229-.093.226-.123,0-.079-.137-.079-.217,0-.595,0-1.19,0-1.785,0-.082-.062-.229.082-.233s.067.146.091.227A1.078,1.078,0,0,1,1096.547,818.849Z" transform="translate(-1046.515 -817.487)" fill="#53b5b9"/>
      <path id="Path_11559" data-name="Path 11559" d="M438.077,821.452a.883.883,0,0,1-.96.393.653.653,0,0,1-.537-.578,14.256,14.256,0,0,1-.031-1.567c0-.067.006-.138.1-.129s.076.09.076.15c0,.419,0,.837,0,1.256,0,.484.186.718.575.73a.722.722,0,0,0,.781-.712c.02-.369.009-.74.011-1.11,0-.056,0-.113,0-.169s-.009-.139.086-.143.089.073.09.136c0,.1,0,.209,0,.314,0,.523,0,1.046,0,1.569,0,.08.047.214-.075.221-.151.009-.083-.138-.1-.221C438.086,821.56,438.085,821.528,438.077,821.452Z" transform="translate(-418.602 -818.556)" fill="#53b5b9"/>
      <path id="Path_11560" data-name="Path 11560" d="M282.6,819.551a.969.969,0,0,0,.7.964.98.98,0,0,0,1.132-.37c.046-.064.083-.175.174-.118s0,.145-.039.2a1.073,1.073,0,0,1-1.084.479,1.09,1.09,0,0,1-1-.816,1.128,1.128,0,0,1,.335-1.232,1.184,1.184,0,0,1,1.755.2c.031.055.119.129.035.186s-.12-.03-.164-.092a1.006,1.006,0,0,0-1.84.6Z" transform="translate(-271.923 -817.408)" fill="#53b5b9"/>
      <path id="Path_11561" data-name="Path 11561" d="M955.259,818.455a1.051,1.051,0,0,1,.936.5c.037.056.134.139.028.2-.084.05-.116-.052-.156-.109a.989.989,0,0,0-1.167-.387,1.031,1.031,0,0,0,.041,1.954.986.986,0,0,0,1.122-.4c.042-.059.08-.152.161-.1.107.066,0,.143-.032.2a1.177,1.177,0,1,1-.933-1.855Z" transform="translate(-911.104 -817.495)" fill="#53b5b9"/>
      <path id="Path_11562" data-name="Path 11562" d="M1207.157,821.5l.655-1.731c.017-.045.029-.092.05-.136.033-.069.052-.179.16-.134s.017.127,0,.18c-.242.655-.491,1.307-.738,1.961q-.162.428-.324.856c-.028.073-.047.178-.156.137s-.022-.134,0-.175a1.36,1.36,0,0,0-.027-1.444,12.885,12.885,0,0,1-.55-1.283c-.028-.069-.141-.175-.025-.225s.138.1.172.179c.227.523.447,1.049.67,1.573C1207.071,821.325,1207.1,821.389,1207.157,821.5Z" transform="translate(-1151.01 -818.481)" fill="#53b5b9"/>
      <path id="Path_11563" data-name="Path 11563" d="M1253.32,819.468c-.37,0-.737,0-1.1,0-.065,0-.172.033-.17-.075s.109-.071.172-.071q.58-.006,1.16,0c.068,0,.158-.037.2.038s-.037.131-.077.188q-.561.816-1.123,1.63a.418.418,0,0,0-.116.236h1.054c.073,0,.145,0,.217,0,.049,0,.1.018.1.081s-.049.083-.1.083c-.483,0-.967.02-1.449-.007-.2-.011-.068-.154-.019-.226.381-.559.767-1.113,1.151-1.67A.338.338,0,0,0,1253.32,819.468Z" transform="translate(-1194.627 -818.31)" fill="#53b5b9"/>
      <path id="Path_11564" data-name="Path 11564" d="M653.8,821.49a.89.89,0,0,1-.921.448.69.69,0,0,1-.619-.689c-.012-.483-.005-.966,0-1.448,0-.058-.023-.147.078-.143s.073.09.073.149c0,.427,0,.853,0,1.28,0,.4.166.64.463.7a.738.738,0,0,0,.861-.492,1.27,1.27,0,0,0,.067-.427q-.005-.519,0-1.038c0-.062-.039-.166.079-.165.1,0,.07.092.07.149q0,.978,0,1.956c0,.06.018.144-.085.136-.081-.006-.064-.079-.066-.132C653.8,821.7,653.8,821.624,653.8,821.49Z" transform="translate(-623.89 -818.64)" fill="#53b5b9"/>
      <path id="Path_11565" data-name="Path 11565" d="M403.936,806.843c0-.273-.012-.548,0-.82.011-.187-.058-.249-.233-.223a.523.523,0,0,1-.12,0c-.059-.005-.148.02-.143-.079s.093-.066.151-.07c.342-.022.335-.021.346-.378,0-.115-.075-.322.084-.324.184,0,.053.2.087.312a.322.322,0,0,1,0,.144c-.034.207.059.268.255.25.083-.008.242-.055.244.058,0,.154-.165.09-.25.082-.2-.018-.257.054-.252.254.014.555.006,1.11,0,1.665,0,.072.036.187-.087.186s-.087-.114-.088-.188C403.935,807.422,403.936,807.132,403.936,806.843Z" transform="translate(-387.103 -804.642)" fill="#53b5b9"/>
      <path id="Path_11566" data-name="Path 11566" d="M904.364,806.571c0-.281-.01-.563,0-.844.009-.175-.057-.218-.22-.215-.1,0-.288.07-.286-.063,0-.154.195-.077.3-.073.18.007.221-.067.209-.226-.01-.136,0-.273,0-.41,0-.054.023-.093.087-.086s.062.045.063.086a2.314,2.314,0,0,1,0,.337c-.029.222.035.331.282.3.074-.01.234-.069.229.073-.005.125-.16.073-.242.065-.205-.019-.279.039-.271.261.018.554.008,1.11,0,1.664,0,.067.047.189-.086.179-.1-.008-.063-.114-.064-.178C904.362,807.15,904.364,806.86,904.364,806.571Z" transform="translate(-863.334 -804.361)" fill="#53b5b9"/>
      <path id="Path_11567" data-name="Path 11567" d="M698.633,806.574c0-.274-.01-.548,0-.821.009-.18-.031-.268-.234-.247-.09.009-.267.063-.265-.065,0-.148.181-.078.273-.073.187.012.244-.057.225-.234a3.044,3.044,0,0,1,0-.362c0-.056-.005-.123.075-.126s.078.065.079.121a3.361,3.361,0,0,1,0,.362c-.016.174.039.25.227.239.095-.005.279-.069.276.072s-.187.068-.284.066c-.165,0-.224.043-.22.216.01.563.006,1.127,0,1.69,0,.07.047.191-.07.2s-.081-.116-.082-.188C698.631,807.137,698.633,806.855,698.633,806.574Z" transform="translate(-667.552 -804.353)" fill="#53b5b9"/>
      <path id="Path_11568" data-name="Path 11568" d="M487.55,819.054a.9.9,0,0,1,.6-.432c.058-.012.137-.048.164.04s-.061.091-.118.109a.788.788,0,0,0-.654.879c0,.354,0,.708,0,1.063,0,.074.026.187-.092.184s-.085-.117-.085-.191q0-.93,0-1.86c0-.071-.042-.187.081-.191.145,0,.082.125.1.2C487.547,818.9,487.544,818.949,487.55,819.054Z" transform="translate(-466.959 -817.638)" fill="#53b5b9"/>
      <path id="Path_11569" data-name="Path 11569" d="M1350.1,819.164a.884.884,0,0,1,.622-.483c.06-.013.139-.038.156.055s-.06.079-.111.1a.828.828,0,0,0-.667.944c0,.313.005.627,0,.94,0,.082.065.232-.081.231-.119,0-.066-.141-.067-.218,0-.595-.006-1.19,0-1.784,0-.078-.071-.23.084-.223.116.006.05.143.064.221A1.586,1.586,0,0,1,1350.1,819.164Z" transform="translate(-1287.849 -817.699)" fill="#53b5b9"/>
      <path id="Path_11570" data-name="Path 11570" d="M938.534,820.695c0,.322,0,.644,0,.966,0,.07.015.164-.09.165s-.089-.094-.089-.163q0-.966,0-1.932c0-.06-.021-.142.075-.151s.1.077.1.149C938.535,820.051,938.534,820.373,938.534,820.695Z" transform="translate(-896.158 -818.565)" fill="#53b5b9"/>
      <path id="Path_11571" data-name="Path 11571" d="M938.258,801.034c.031-.074-.055-.223.1-.214.134.008.083.148.086.233s.04.208-.086.207C938.206,801.26,938.285,801.117,938.258,801.034Z" transform="translate(-896.068 -800.713)" fill="#53b5b9"/>
      <path id="Path_11572" data-name="Path 11572" d="M67.923,803.577q-.548-1.4-1.1-2.8c-.031-.079-.041-.179-.167-.17-.109.008-.115.1-.143.169-.177.448-.346.9-.531,1.345-.212.509-.367,1.042-.628,1.531v.1c.123.071.173,0,.212-.1.068-.181.146-.357.207-.54a.218.218,0,0,1,.243-.175q.652.014,1.3,0a.223.223,0,0,1,.246.175c.064.182.138.36.207.54.027.07.062.157.147.122S67.947,803.637,67.923,803.577Zm-1.895-.8c-.093,0-.11-.046-.081-.122l.719-1.845.768,1.967Z" transform="translate(-65.353 -800.505)" fill="#53b5b9"/>
      <path id="Path_11573" data-name="Path 11573" d="M127.718,821.447c.005-.692,0-1.385,0-2.077,0-.242,0-.483,0-.724,0-.053.011-.124-.072-.125s-.078.066-.079.121c0,.12,0,.24,0,.4a1.237,1.237,0,0,0-1.837-.281,1.2,1.2,0,0,0-.038,1.71c.526.534,1.192.458,1.875-.232,0,.419,0,.818,0,1.216,0,.07-.047.194.068.2C127.78,821.656,127.718,821.52,127.718,821.447Zm-1.169-.793a1.02,1.02,0,1,1,1.016-1.035A1.014,1.014,0,0,1,126.549,820.654Z" transform="translate(-122.453 -817.504)" fill="#53b5b9"/>
      <path id="Path_11574" data-name="Path 11574" d="M592.35,803.626q-.566-1.448-1.134-2.895c-.028-.07-.055-.13-.149-.131s-.114.077-.139.141q-.562,1.424-1.119,2.849c-.02.051-.085.126,0,.168s.126-.037.153-.106c.074-.187.154-.372.216-.562a.211.211,0,0,1,.247-.167c.209.011.418,0,.628,0s.435.009.652,0a.227.227,0,0,1,.265.176c.067.2.152.389.229.583.023.057.06.1.127.082C592.412,803.738,592.368,803.672,592.35,803.626Zm-.677-.85c-.4,0-.8,0-1.2,0-.084,0-.167.011-.112-.127.235-.6.464-1.193.716-1.847.254.654.48,1.244.714,1.832C591.841,802.769,591.781,802.777,591.673,802.776Z" transform="translate(-564.42 -800.503)" fill="#53b5b9"/>
      <path id="Path_11575" data-name="Path 11575" d="M1034.955,803.591q-.56-1.424-1.119-2.849c-.027-.068-.043-.138-.139-.141s-.127.08-.156.153q-.559,1.424-1.116,2.85c-.02.051-.094.124,0,.161s.123-.039.151-.114c.068-.18.151-.356.209-.539a.243.243,0,0,1,.284-.189c.4.01.805.013,1.207,0a.28.28,0,0,1,.33.229,5.422,5.422,0,0,0,.209.539.1.1,0,0,0,.135.07c.021-.008.031-.048.043-.069C1034.979,803.65,1034.967,803.621,1034.955,803.591Zm-2.027-.823.764-1.963.763,1.963Z" transform="translate(-985.641 -800.504)" fill="#53b5b9"/>
      <path id="Path_11576" data-name="Path 11576" d="M1292.994,819.514c.289.007.579,0,.868,0s.579,0,.868,0c.109,0,.156-.03.161-.149a1.139,1.139,0,0,0-.7-1.057,1.123,1.123,0,0,0-1.321.424,1.278,1.278,0,0,0,.128,1.54,1.162,1.162,0,0,0,1.721-.1c.038-.058.133-.139.028-.2-.081-.049-.12.047-.16.105a.977.977,0,0,1-1.723-.386C1292.829,819.567,1292.854,819.51,1292.994,819.514Zm-.132-.364a.942.942,0,0,1,.989-.745.931.931,0,0,1,.867.771c.026.129.008.2-.147.192-.265-.009-.531,0-.8,0-.249,0-.5-.009-.748,0C1292.846,819.377,1292.826,819.3,1292.862,819.15Z" transform="translate(-1233.348 -817.293)" fill="#53b5b9"/>
      <path id="Path_11577" data-name="Path 11577" d="M511.669,819.518c.281.009.563,0,.845,0s.579,0,.869,0c.106,0,.156-.023.162-.146a1.143,1.143,0,0,0-.844-1.1,1.116,1.116,0,0,0-1.245.569,1.252,1.252,0,0,0,.258,1.5,1.208,1.208,0,0,0,1.4.086.909.909,0,0,0,.3-.337c.019-.036.043-.076.006-.109a.087.087,0,0,0-.129.01c-.038.041-.062.093-.1.137a.92.92,0,0,1-.985.291.893.893,0,0,1-.7-.721C511.479,819.564,511.526,819.514,511.669,819.518Zm-.164-.321a.928.928,0,0,1,.972-.788.94.94,0,0,1,.9.846c.007.116-.055.114-.13.114h-.8c-.265,0-.531,0-.8,0C511.523,819.375,511.492,819.321,511.505,819.2Z" transform="translate(-489.76 -817.298)" fill="#53b5b9"/>
      <path id="Path_11578" data-name="Path 11578" d="M238,819.065a.714.714,0,0,0-.657-.632.792.792,0,0,0-.919.488c-.023.073-.072.176.024.212.124.046.106-.09.13-.153a.63.63,0,0,1,.717-.4.584.584,0,0,1,.549.519,5.529,5.529,0,0,1,0,.555,1.115,1.115,0,0,0-.934-.254.69.69,0,0,0-.609.618.655.655,0,0,0,.509.72,1.009,1.009,0,0,0,1.018-.233c.051.081-.028.216.112.221.088,0,.087-.079.086-.144C238.014,820.077,238.055,819.57,238,819.065Zm-.737,1.552c-.04,0-.08,0-.12,0a.612.612,0,0,1-.618-.284.487.487,0,0,1,.026-.545.715.715,0,0,1,.713-.243.549.549,0,0,1,.587.538C237.846,820.391,237.626,820.592,237.259,820.616Z" transform="translate(-228.035 -817.468)" fill="#53b5b9"/>
      <path id="Path_11579" data-name="Path 11579" d="M1144.91,820.5c.007-.45.011-.9,0-1.35a.716.716,0,0,0-.664-.7.8.8,0,0,0-.921.487c-.019.069-.067.176.032.211s.094-.078.117-.139a.644.644,0,0,1,.755-.409.6.6,0,0,1,.527.572c.014.163,0,.329,0,.509a1.107,1.107,0,0,0-.94-.262.662.662,0,0,0-.609.637.65.65,0,0,0,.549.711,1,1,0,0,0,.977-.244c.064.067-.029.223.1.215C1144.98,820.725,1144.909,820.581,1144.91,820.5Zm-.58.106a1.288,1.288,0,0,1-.224.027c-.58,0-.88-.351-.7-.75a.628.628,0,0,1,.687-.33.613.613,0,0,1,.626.356A.513.513,0,0,1,1144.33,820.607Z" transform="translate(-1091.111 -817.481)" fill="#53b5b9"/>
      <path id="Path_11580" data-name="Path 11580" d="M860.833,820.377c0-.458.009-.917,0-1.376a.72.72,0,0,0-.6-.692.843.843,0,0,0-.953.4.449.449,0,0,0-.044.136c-.007.058-.044.142.048.161s.085-.067.106-.126a.619.619,0,0,1,.719-.428.577.577,0,0,1,.555.512,4.08,4.08,0,0,1,0,.574,1.059,1.059,0,0,0-.917-.266.665.665,0,0,0-.621.6.647.647,0,0,0,.512.739,1,1,0,0,0,1.013-.241c.059.085-.034.235.106.227S860.832,820.454,860.833,820.377Zm-.595.091a1.371,1.371,0,0,1-.228.023c-.563,0-.848-.341-.685-.741.1-.249.334-.357.729-.338a.6.6,0,0,1,.6.39A.523.523,0,0,1,860.238,820.468Z" transform="translate(-820.763 -817.338)" fill="#53b5b9"/>
      <path id="Path_11581" data-name="Path 11581" d="M728.571,818.482a1.161,1.161,0,0,0-1.19,1.163,1.186,1.186,0,0,0,1.2,1.194,1.174,1.174,0,0,0,1.172-1.188A1.145,1.145,0,0,0,728.571,818.482Zm-.007,2.189a1.019,1.019,0,1,1,1.03-1.02A1.013,1.013,0,0,1,728.564,820.671Z" transform="translate(-695.383 -817.521)" fill="#53b5b9"/>
    </g>
    <g id="Group_38275" data-name="Group 38275" transform="translate(1.498 5.224)">
      <path id="Path_11582" data-name="Path 11582" d="M201.353,267.056v-1.1c.378,0,.706,0,1.034,0a2.531,2.531,0,0,0,1.2-.32,1.373,1.373,0,0,0,.765-1.3q-.007-3.745,0-7.489c0-.326,0-.327.326-.327.193,0,.388.014.579,0,.223-.021.28.074.266.277s0,.4,0,.6c0,1.86,0,3.721,0,5.581,0,.225.037.321.3.321,3.423-.01,6.845,0,10.268-.01a5.591,5.591,0,0,0,1.008-.076,1.211,1.211,0,0,0,1.092-1.331c0-1.643,0-3.286,0-4.929,0-.1,0-.192,0-.325.371,0,.73,0,1.088.005.04,0,.1.068.114.116a.753.753,0,0,1,.009.216c0,1.562-.025,3.125.008,4.687a2.609,2.609,0,0,1-2.49,2.682c-.384.033-.771.046-1.157.046q-4.941.005-9.881,0h-.333c-.01.093-.022.17-.026.248a2.311,2.311,0,0,1-2.43,2.365c-.288.01-.576.039-.864.059Z" transform="translate(-196.278 -249.361)" fill="#275482"/>
      <path id="Path_11583" data-name="Path 11583" d="M96.353,266.172c.56-.028,1.122-.038,1.679-.094a1.655,1.655,0,0,0,.577-.231,1.344,1.344,0,0,0,.748-1.279q-.007-3.732,0-7.463v-.35c.367,0,.718,0,1.068.005.033,0,.081.069.094.113a.707.707,0,0,1,.009.192c0,2.56,0,5.12-.006,7.68a2.907,2.907,0,0,1-.129.853,2.236,2.236,0,0,1-2.279,1.626c-.3.012-.592.039-.888.06h-.87Z" transform="translate(-96.353 -249.588)" fill="#275482"/>
      <path id="Path_11584" data-name="Path 11584" d="M782.52,183c.661,0,1.272.014,1.882,0a1.115,1.115,0,0,0,1.055-1.33c-.011-.056-.128-.13-.2-.132-.564-.011-1.128-.006-1.691-.006a3.95,3.95,0,0,1-3.948-3.207,4.029,4.029,0,0,1,2.411-4.455,2.64,2.64,0,0,1,1.12-.24c1.055.018,2.11.006,3.165.006.318,0,.319,0,.319.31q0,3.081,0,6.162c0,.329,0,.329.33.329H801.8a1.147,1.147,0,0,0,1.288-1.19c.018-.786-.044-1.575-.1-2.36a.707.707,0,0,0-.673-.67,2.754,2.754,0,0,0-.456-.036c-1.015,0-2.03-.006-3.045,0a2.047,2.047,0,0,1-1.721-.809,1.726,1.726,0,0,1-.283-1.076c-.035-.909-.051-1.819-.055-2.729a2.071,2.071,0,0,1,2.02-2.1c1.288-.026,2.577-.007,3.866-.012.161,0,.211.066.208.217-.006.258-.012.516,0,.773.012.209-.077.256-.269.254-1.192-.007-2.384,0-3.576-.005a.915.915,0,0,0-.75.259.9.9,0,0,0-.255.5q-.006,1.448.058,2.9c.019.422.295.626.753.633.5.007,1,0,1.5,0,.652,0,1.3-.007,1.957,0a2.008,2.008,0,0,1,2.036,1.586,6.514,6.514,0,0,1,.093,1.2,13.574,13.574,0,0,1-.085,2.186,1.785,1.785,0,0,1-1.77,1.529c-.3.026-.594.041-.891.041q-7.346,0-14.692,0c-.25,0-.33.062-.327.317a2.51,2.51,0,0,1-.452,1.4,1.955,1.955,0,0,1-1.7.844c-.571.025-1.143.032-1.714.061-.2.01-.251-.065-.244-.248C782.529,183.619,782.52,183.347,782.52,183Zm2.92-2.525c.013-.142.027-.22.027-.3,0-1.706,0-3.413,0-5.119,0-.185-.055-.253-.249-.249-.628.011-1.256,0-1.884.006a2.236,2.236,0,0,0-1.125.313,2.817,2.817,0,0,0-1.376,2.823A2.768,2.768,0,0,0,783,180.322,21.328,21.328,0,0,0,785.44,180.471Z" transform="translate(-746.521 -166.496)" fill="#275482"/>
      <path id="Path_11585" data-name="Path 11585" d="M600.345,191.536l-.128-1.063h2.424a1.419,1.419,0,0,0,1.5-1.244,3.654,3.654,0,0,0,.054-.647q.005-4.132,0-8.264V180c.329,0,.641,0,.952.005.042,0,.1.067.117.115a.583.583,0,0,1,.007.191c0,2.924,0,5.848-.006,8.772a3.286,3.286,0,0,1-.133.925,1.97,1.97,0,0,1-1.994,1.549c-.9.032-1.8.007-2.706.007A.488.488,0,0,1,600.345,191.536Z" transform="translate(-575.864 -176.539)" fill="#275482"/>
      <path id="Path_11586" data-name="Path 11586" d="M1319.885,169.741h1.15v12.044h-1.15Z" transform="translate(-1260.748 -166.781)" fill="#275482"/>
      <path id="Path_11587" data-name="Path 11587" d="M731.1,181.552c-.365,0-.693.006-1.021-.006-.051,0-.116-.079-.143-.137a.484.484,0,0,1-.008-.191q0-5.691,0-11.381c0-.358,0-.358.353-.358.209,0,.419.006.628,0,.149-.005.206.055.192.2-.006.064,0,.129,0,.193v11.682Z" transform="translate(-699.302 -166.529)" fill="#275482"/>
      <path id="Path_11588" data-name="Path 11588" d="M618.349,217.649H617.2c-.008-.091-.021-.175-.021-.258q0-3.959-.005-7.919c0-.222.066-.3.287-.287s.467.007.7,0c.132,0,.194.053.186.187,0,.064,0,.129,0,.193v8.081Z" transform="translate(-592.003 -204.316)" fill="#275482"/>
      <path id="Path_11589" data-name="Path 11589" d="M260.54,195.557a.7.7,0,0,1,.7-.7.711.711,0,1,1-.012,1.421A.7.7,0,0,1,260.54,195.557Z" transform="translate(-252.604 -190.679)" fill="#275482"/>
      <path id="Path_11590" data-name="Path 11590" d="M543.32,443.736a.732.732,0,0,1,.708.706.714.714,0,0,1-.714.7.686.686,0,0,1-.709-.714A.7.7,0,0,1,543.32,443.736Z" transform="translate(-521.036 -427.532)" fill="#275482"/>
      <path id="Path_11591" data-name="Path 11591" d="M502.09,445.129a.667.667,0,0,1-.694-.7.678.678,0,0,1,.7-.7.7.7,0,0,1,.7.705A.683.683,0,0,1,502.09,445.129Z" transform="translate(-481.818 -427.524)" fill="#275482"/>
      <path id="Path_11592" data-name="Path 11592" d="M1317.444,110.412h-1.4v-.351l.254-.072c-.03-.058-.051-.107-.079-.153a.872.872,0,0,1,.695-1.33c.135-.016.273-.008.409-.017s.2.046.2.194-.045.208-.194.2a1.664,1.664,0,0,0-.311.027c-.325.052-.53.242-.535.491A.646.646,0,0,0,1317,110a1.482,1.482,0,0,0,.215.025C1317.514,110.045,1317.534,110.076,1317.444,110.412Z" transform="translate(-1257.091 -108.489)" fill="#275482"/>
    </g>
  </g>
</svg>
